<?xml version="1.0" encoding="UTF-8" standalone="no"?>
<!DOCTYPE svg PUBLIC "-//W3C//DTD SVG 1.1//EN"
 "http://www.w3.org/Graphics/SVG/1.1/DTD/svg11.dtd">
<!-- Generated by graphviz version 12.1.1 (20240910.0053)
 -->
<!-- Title: INFRA Pages: 1 -->
<svg width="865pt" height="404pt"
 viewBox="0.00 0.00 864.83 404.00" xmlns="http://www.w3.org/2000/svg" xmlns:xlink="http://www.w3.org/1999/xlink">
<g id="graph0" class="graph" transform="scale(1 1) rotate(0) translate(4 400)">
<title>INFRA</title>
<polygon fill="white" stroke="none" points="-4,4 -4,-400 860.83,-400 860.83,4 -4,4"/>
<!-- MongoDB Database -->
<g id="node1" class="node">
<title>MongoDB Database</title>
<path fill="#ffcfb3" stroke="black" stroke-width="2" d="M506.06,-65.45C506.06,-69.07 471.26,-72 428.42,-72 385.57,-72 350.77,-69.07 350.77,-65.45 350.77,-65.45 350.77,-6.55 350.77,-6.55 350.77,-2.93 385.57,0 428.42,0 471.26,0 506.06,-2.93 506.06,-6.55 506.06,-6.55 506.06,-65.45 506.06,-65.45"/>
<path fill="none" stroke="black" stroke-width="2" d="M506.06,-65.45C506.06,-61.84 471.26,-58.91 428.42,-58.91 385.57,-58.91 350.77,-61.84 350.77,-65.45"/>
<text text-anchor="middle" x="428.42" y="-40.2" font-family="Arial" font-size="14.00">MongoDB Database</text>
<text text-anchor="middle" x="428.42" y="-23.4" font-family="Arial" font-size="14.00">(MongoDB::Database)</text>
</g>
<!-- EmailJobModel -->
<g id="node2" class="node">
<title>EmailJobModel</title>
<path fill="#ffcfb3" stroke="black" stroke-width="2" d="M156.83,-173.45C156.83,-177.07 121.69,-180 78.42,-180 35.15,-180 0,-177.07 0,-173.45 0,-173.45 0,-114.55 0,-114.55 0,-110.93 35.15,-108 78.42,-108 121.69,-108 156.83,-110.93 156.83,-114.55 156.83,-114.55 156.83,-173.45 156.83,-173.45"/>
<path fill="none" stroke="black" stroke-width="2" d="M156.83,-173.45C156.83,-169.84 121.69,-166.91 78.42,-166.91 35.15,-166.91 0,-169.84 0,-173.45"/>
<text text-anchor="middle" x="78.42" y="-148.2" font-family="Arial" font-size="14.00">EmailJobModel</text>
<text text-anchor="middle" x="78.42" y="-131.4" font-family="Arial" font-size="14.00">(MongoDB::Collection)</text>
</g>
<!-- EmailJobModel&#45;&gt;MongoDB Database -->
<g id="edge1" class="edge">
<title>EmailJobModel&#45;&gt;MongoDB Database</title>
<path fill="none" stroke="black" d="M156.94,-111.26C160.13,-110.13 163.3,-109.04 166.42,-108 223.28,-89.06 288.3,-71.41 339.34,-58.45"/>
<polygon fill="black" stroke="black" points="340.03,-61.89 348.87,-56.05 338.32,-55.1 340.03,-61.89"/>
</g>
<!-- EmailTargetModel -->
<g id="node3" class="node">
<title>EmailTargetModel</title>
<path fill="#ffcfb3" stroke="black" stroke-width="2" d="M331.83,-173.45C331.83,-177.07 296.69,-180 253.42,-180 210.15,-180 175,-177.07 175,-173.45 175,-173.45 175,-114.55 175,-114.55 175,-110.93 210.15,-108 253.42,-108 296.69,-108 331.83,-110.93 331.83,-114.55 331.83,-114.55 331.83,-173.45 331.83,-173.45"/>
<path fill="none" stroke="black" stroke-width="2" d="M331.83,-173.45C331.83,-169.84 296.69,-166.91 253.42,-166.91 210.15,-166.91 175,-169.84 175,-173.45"/>
<text text-anchor="middle" x="253.42" y="-148.2" font-family="Arial" font-size="14.00">EmailTargetModel</text>
<text text-anchor="middle" x="253.42" y="-131.4" font-family="Arial" font-size="14.00">(MongoDB::Collection)</text>
</g>
<!-- EmailTargetModel&#45;&gt;MongoDB Database -->
<g id="edge2" class="edge">
<title>EmailTargetModel&#45;&gt;MongoDB Database</title>
<path fill="none" stroke="black" d="M309.75,-108.88C326.53,-98.72 345.06,-87.49 362.4,-76.99"/>
<polygon fill="black" stroke="black" points="363.85,-80.2 370.59,-72.02 360.23,-74.21 363.85,-80.2"/>
</g>
<!-- EmailProviderModel -->
<g id="node4" class="node">
<title>EmailProviderModel</title>
<path fill="#ffcfb3" stroke="black" stroke-width="2" d="M506.83,-173.45C506.83,-177.07 471.69,-180 428.42,-180 385.15,-180 350,-177.07 350,-173.45 350,-173.45 350,-114.55 350,-114.55 350,-110.93 385.15,-108 428.42,-108 471.69,-108 506.83,-110.93 506.83,-114.55 506.83,-114.55 506.83,-173.45 506.83,-173.45"/>
<path fill="none" stroke="black" stroke-width="2" d="M506.83,-173.45C506.83,-169.84 471.69,-166.91 428.42,-166.91 385.15,-166.91 350,-169.84 350,-173.45"/>
<text text-anchor="middle" x="428.42" y="-148.2" font-family="Arial" font-size="14.00">EmailProviderModel</text>
<text text-anchor="middle" x="428.42" y="-131.4" font-family="Arial" font-size="14.00">(MongoDB::Collection)</text>
</g>
<!-- EmailProviderModel&#45;&gt;MongoDB Database -->
<g id="edge3" class="edge">
<title>EmailProviderModel&#45;&gt;MongoDB Database</title>
<path fill="none" stroke="black" d="M428.42,-107.7C428.42,-99.93 428.42,-91.57 428.42,-83.43"/>
<polygon fill="black" stroke="black" points="431.92,-83.66 428.42,-73.66 424.92,-83.66 431.92,-83.66"/>
</g>
<!-- SuppressionModel -->
<g id="node5" class="node">
<title>SuppressionModel</title>
<path fill="#ffcfb3" stroke="black" stroke-width="2" d="M681.83,-173.45C681.83,-177.07 646.69,-180 603.42,-180 560.15,-180 525,-177.07 525,-173.45 525,-173.45 525,-114.55 525,-114.55 525,-110.93 560.15,-108 603.42,-108 646.69,-108 681.83,-110.93 681.83,-114.55 681.83,-114.55 681.83,-173.45 681.83,-173.45"/>
<path fill="none" stroke="black" stroke-width="2" d="M681.83,-173.45C681.83,-169.84 646.69,-166.91 603.42,-166.91 560.15,-166.91 525,-169.84 525,-173.45"/>
<text text-anchor="middle" x="603.42" y="-148.2" font-family="Arial" font-size="14.00">SuppressionModel</text>
<text text-anchor="middle" x="603.42" y="-131.4" font-family="Arial" font-size="14.00">(MongoDB::Collection)</text>
</g>
<!-- SuppressionModel&#45;&gt;MongoDB Database -->
<g id="edge4" class="edge">
<title>SuppressionModel&#45;&gt;MongoDB Database</title>
<path fill="none" stroke="black" d="M547.08,-108.88C530.31,-98.72 511.77,-87.49 494.43,-76.99"/>
<polygon fill="black" stroke="black" points="496.61,-74.21 486.24,-72.02 492.98,-80.2 496.61,-74.21"/>
</g>
<!-- EmailTemplateModel -->
<g id="node6" class="node">
<title>EmailTemplateModel</title>
<path fill="#ffcfb3" stroke="black" stroke-width="2" d="M856.83,-173.45C856.83,-177.07 821.69,-180 778.42,-180 735.15,-180 700,-177.07 700,-173.45 700,-173.45 700,-114.55 700,-114.55 700,-110.93 735.15,-108 778.42,-108 821.69,-108 856.83,-110.93 856.83,-114.55 856.83,-114.55 856.83,-173.45 856.83,-173.45"/>
<path fill="none" stroke="black" stroke-width="2" d="M856.83,-173.45C856.83,-169.84 821.69,-166.91 778.42,-166.91 735.15,-166.91 700,-169.84 700,-173.45"/>
<text text-anchor="middle" x="778.42" y="-148.2" font-family="Arial" font-size="14.00">EmailTemplateModel</text>
<text text-anchor="middle" x="778.42" y="-131.4" font-family="Arial" font-size="14.00">(MongoDB::Collection)</text>
</g>
<!-- EmailTemplateModel&#45;&gt;MongoDB Database -->
<g id="edge5" class="edge">
<title>EmailTemplateModel&#45;&gt;MongoDB Database</title>
<path fill="none" stroke="black" d="M699.9,-111.26C696.71,-110.13 693.54,-109.04 690.42,-108 633.56,-89.06 568.54,-71.41 517.49,-58.45"/>
<polygon fill="black" stroke="black" points="518.51,-55.1 507.96,-56.05 516.8,-61.89 518.51,-55.1"/>
</g>
<!-- DatabaseService -->
<g id="node7" class="node">
<title>DatabaseService</title>
<path fill="#b7e0ff" stroke="black" stroke-width="2" d="M480.43,-288C480.43,-288 376.41,-288 376.41,-288 370.41,-288 364.41,-282 364.41,-276 364.41,-276 364.41,-228 364.41,-228 364.41,-222 370.41,-216 376.41,-216 376.41,-216 480.43,-216 480.43,-216 486.43,-216 492.43,-222 492.43,-228 492.43,-228 492.43,-276 492.43,-276 492.43,-282 486.43,-288 480.43,-288"/>
<text text-anchor="middle" x="428.42" y="-256.2" font-family="Arial" font-size="14.00">DatabaseService</text>
<text text-anchor="middle" x="428.42" y="-239.4" font-family="Arial" font-size="14.00">(Custom::Service)</text>
</g>
<!-- DatabaseService&#45;&gt;EmailJobModel -->
<g id="edge6" class="edge">
<title>DatabaseService&#45;&gt;EmailJobModel</title>
<path fill="none" stroke="black" d="M364.01,-235.72C313.1,-223.15 240.15,-204.05 167.63,-180.28"/>
<polygon fill="black" stroke="black" points="168.97,-177.04 158.37,-177.22 166.77,-183.68 168.97,-177.04"/>
</g>
<!-- DatabaseService&#45;&gt;EmailTargetModel -->
<g id="edge7" class="edge">
<title>DatabaseService&#45;&gt;EmailTargetModel</title>
<path fill="none" stroke="black" d="M370.14,-215.7C353.94,-205.89 336.22,-195.15 319.59,-185.08"/>
<polygon fill="black" stroke="black" points="321.61,-182.21 311.24,-180.03 317.98,-188.2 321.61,-182.21"/>
</g>
<!-- DatabaseService&#45;&gt;EmailProviderModel -->
<g id="edge8" class="edge">
<title>DatabaseService&#45;&gt;EmailProviderModel</title>
<path fill="none" stroke="black" d="M428.42,-215.7C428.42,-207.93 428.42,-199.57 428.42,-191.43"/>
<polygon fill="black" stroke="black" points="431.92,-191.66 428.42,-181.66 424.92,-191.66 431.92,-191.66"/>
</g>
<!-- DatabaseService&#45;&gt;SuppressionModel -->
<g id="edge9" class="edge">
<title>DatabaseService&#45;&gt;SuppressionModel</title>
<path fill="none" stroke="black" d="M486.69,-215.7C502.9,-205.89 520.62,-195.15 537.24,-185.08"/>
<polygon fill="black" stroke="black" points="538.85,-188.2 545.59,-180.03 535.22,-182.21 538.85,-188.2"/>
</g>
<!-- DatabaseService&#45;&gt;EmailTemplateModel -->
<g id="edge10" class="edge">
<title>DatabaseService&#45;&gt;EmailTemplateModel</title>
<path fill="none" stroke="black" d="M492.82,-235.72C543.73,-223.15 616.68,-204.05 689.2,-180.28"/>
<polygon fill="black" stroke="black" points="690.07,-183.68 698.46,-177.22 687.87,-177.04 690.07,-183.68"/>
</g>
<!-- FastifyServer -->
<g id="node8" class="node">
<title>FastifyServer</title>
<path fill="#b7e0ff" stroke="black" stroke-width="2" d="M492.1,-396C492.1,-396 364.74,-396 364.74,-396 358.74,-396 352.74,-390 352.74,-384 352.74,-384 352.74,-336 352.74,-336 352.74,-330 358.74,-324 364.74,-324 364.74,-324 492.1,-324 492.1,-324 498.1,-324 504.1,-330 504.1,-336 504.1,-336 504.1,-384 504.1,-384 504.1,-390 498.1,-396 492.1,-396"/>
<text text-anchor="middle" x="428.42" y="-364.2" font-family="Arial" font-size="14.00">FastifyServer</text>
<text text-anchor="middle" x="428.42" y="-347.4" font-family="Arial" font-size="14.00">(Custom::WebServer)</text>
</g>
<!-- FastifyServer&#45;&gt;DatabaseService -->
<g id="edge11" class="edge">
<title>FastifyServer&#45;&gt;DatabaseService</title>
<path fill="none" stroke="black" d="M428.42,-323.7C428.42,-315.93 428.42,-307.57 428.42,-299.43"/>
<polygon fill="black" stroke="black" points="431.92,-299.66 428.42,-289.66 424.92,-299.66 431.92,-299.66"/>
</g>
<!-- TailwindCSS -->
<g id="node9" class="node">
<title>TailwindCSS</title>
<path fill="#e6e6e6" stroke="black" stroke-width="2" d="M633.1,-396C633.1,-396 533.74,-396 533.74,-396 527.74,-396 521.74,-390 521.74,-384 521.74,-384 521.74,-336 521.74,-336 521.74,-330 527.74,-324 533.74,-324 533.74,-324 633.1,-324 633.1,-324 639.1,-324 645.1,-330 645.1,-336 645.1,-336 645.1,-384 645.1,-384 645.1,-390 639.1,-396 633.1,-396"/>
<text text-anchor="middle" x="583.42" y="-364.2" font-family="Arial" font-size="14.00">TailwindCSS</text>
<text text-anchor="middle" x="583.42" y="-347.4" font-family="Arial" font-size="14.00">(Custom::Styling)</text>
</g>
</g>
</svg>
